<svg xmlns="http://www.w3.org/2000/svg" width="222.0713" height="42.0557" viewBox="0 0 222.0713 42.0557"><defs><style>.cls-1{isolation:isolate;}.cls-2{fill:#fff;}.cls-3{fill:#4af59b;}</style></defs><title>Asset 1</title><g id="Layer_2" data-name="Layer 2"><g id="Component_17_1" data-name="Component 17 1"><g id="DIGILAB" class="cls-1"><g class="cls-1"><path class="cls-2" d="M12.6309.5947c12.3759,0,19.4843,7.4483,19.4843,20.419,0,12.999-7.08,20.4472-19.4843,20.4472H0V.5947ZM2.2656,39.3936h10.28c11.1016,0,17.3037-6.5987,17.3037-18.3516,0-11.81-6.2021-18.38-17.3037-18.38H2.2656Z"/><path class="cls-2" d="M40.9722,41.4609V.5947H43.21V41.4609Z"/><path class="cls-2" d="M69.936,42.0557c-10.6484,0-17.8984-8.5811-17.8984-21.2686C52.0376,8.27,59.1743,0,69.936,0c8.2129,0,14.6983,4.9561,16.2276,12.376H83.87c-1.6142-6.2588-7.0517-10.28-13.9336-10.28-9.4589,0-15.6045,7.3633-15.6045,18.6631,0,11.498,6.2872,19.2012,15.6045,19.2012,8.7793,0,14.2452-5.5225,14.2452-14.33V23.2793H69.936V21.24H86.418v4.05C86.418,35.7119,80.188,42.0557,69.936,42.0557Z"/><path class="cls-2" d="M95.53,41.4609V.5947h2.2373V41.4609Z"/></g><g class="cls-1"><path class="cls-3" d="M135.0859,41.4609h-27.3V.5947h10.3931V33.0781h16.9072Z"/><path class="cls-3" d="M167.4492,32.4834H154.082l-2.6054,8.9775H140.8848L154.62.5947h12.7158l13.7354,40.8662H170.0264Zm-11.3564-7.4766H165.41L160.8789,9.2607h-.2266Z"/><path class="cls-3" d="M188.2852,41.4609V.5947h19.0029c8.043,0,12.8848,3.88,12.8848,10.1953a9.0107,9.0107,0,0,1-7.9864,8.8643v.2266c5.5235.2548,9.8848,4.3613,9.8848,9.7988,0,7.165-5.5234,11.7812-14.2734,11.7812Zm10.3935-24.2138H204.03c3.7676,0,6.0332-1.7842,6.0332-4.7295,0-2.86-2.0391-4.56-5.5235-4.56h-5.8613Zm6.1738,16.8506c4.2754,0,6.6543-1.8692,6.6543-5.3243,0-3.3418-2.4355-5.2109-6.7109-5.2109h-6.1172V34.0977Z"/></g></g></g></g></svg>