<svg id="Group_237" data-name="Group 237" xmlns="http://www.w3.org/2000/svg" width="201.015" height="201" viewBox="0 0 201.015 201">
  <g id="Group_217" data-name="Group 217" transform="translate(148.435 63.701)">
    <g id="Group_216" data-name="Group 216">
      <g id="Group_215" data-name="Group 215">
        <path id="Path_386" data-name="Path 386" d="M318.908,278.427a3.858,3.858,0,0,1-3.861-3.861v-31.99a3.866,3.866,0,1,1,7.732,0v31.99A3.867,3.867,0,0,1,318.908,278.427Z" transform="translate(-315.047 -238.705)" fill="#4af59b"/>
      </g>
    </g>
  </g>
  <g id="Group_220" data-name="Group 220" transform="translate(136.123 39.089)">
    <g id="Group_219" data-name="Group 219">
      <g id="Group_218" data-name="Group 218">
        <path id="Path_387" data-name="Path 387" d="M330.071,268.753a16.172,16.172,0,1,1,16.182-16.172A16.2,16.2,0,0,1,330.071,268.753Zm0-24.622a8.445,8.445,0,1,0,8.451,8.45A8.458,8.458,0,0,0,330.071,244.131Z" transform="translate(-313.899 -236.41)" fill="#4af59b"/>
      </g>
    </g>
  </g>
  <g id="Group_223" data-name="Group 223" transform="translate(0)">
    <g id="Group_222" data-name="Group 222">
      <g id="Group_221" data-name="Group 221">
        <path id="Path_388" data-name="Path 388" d="M305.07,433.765a3.857,3.857,0,0,1-3.668-5.083l14.392-43.239a100.534,100.534,0,1,1,98.575,47.486,3.86,3.86,0,0,1-4.343-3.839V390.815a3.86,3.86,0,0,1,3.871-3.861h28.011a7.749,7.749,0,0,0,7.732-7.732V329.077a7.742,7.742,0,0,0-7.732-7.732h-80.43a7.733,7.733,0,0,0-7.721,7.732v50.145a7.739,7.739,0,0,0,7.721,7.732h31.347a3.858,3.858,0,0,1,3.861,3.861v38.66a3.848,3.848,0,0,1-1.255,2.852,3.65,3.65,0,0,1-2.949,1,99.858,99.858,0,0,1-42.95-14.177L306.3,433.572A3.753,3.753,0,0,1,305.07,433.765Zm44.955-22.724a3.907,3.907,0,0,1,2.081.6,90.923,90.923,0,0,0,36.859,13.512V394.687H361.478a15.474,15.474,0,0,1-15.453-15.464V329.077a15.474,15.474,0,0,1,15.453-15.464h80.43a15.483,15.483,0,0,1,15.464,15.464v50.145a15.483,15.483,0,0,1-15.464,15.464h-24.15v29.92A92.7,92.7,0,1,0,323.3,382.88a3.877,3.877,0,0,1,.408,3.292l-12.526,37.62,37.631-12.547A3.644,3.644,0,0,1,350.025,411.041Z" transform="translate(-301.206 -232.765)" fill="#4af59b"/>
      </g>
    </g>
  </g>
  <g id="Group_230" data-name="Group 230" transform="translate(62.31 107.669)">
    <g id="Group_226" data-name="Group 226">
      <g id="Group_225" data-name="Group 225">
        <g id="Group_224" data-name="Group 224">
          <path id="Path_389" data-name="Path 389" d="M320.722,270.237a13.716,13.716,0,1,1,13.716-13.716A13.726,13.726,0,0,1,320.722,270.237Zm0-19.7a5.984,5.984,0,1,0,5.984,5.984A5.991,5.991,0,0,0,320.722,250.537Z" transform="translate(-307.016 -242.805)" fill="#4af59b"/>
        </g>
      </g>
    </g>
    <g id="Group_229" data-name="Group 229" transform="translate(48.934)">
      <g id="Group_228" data-name="Group 228">
        <g id="Group_227" data-name="Group 227">
          <path id="Path_390" data-name="Path 390" d="M325.295,270.237a13.716,13.716,0,1,1,13.716-13.716A13.735,13.735,0,0,1,325.295,270.237Zm0-19.7a5.984,5.984,0,1,0,5.973,5.984A5.993,5.993,0,0,0,325.295,250.537Z" transform="translate(-311.579 -242.805)" fill="#4af59b"/>
        </g>
      </g>
    </g>
  </g>
  <g id="Group_233" data-name="Group 233" transform="translate(44.819 63.701)">
    <g id="Group_232" data-name="Group 232">
      <g id="Group_231" data-name="Group 231">
        <path id="Path_391" data-name="Path 391" d="M309.245,278.427a3.858,3.858,0,0,1-3.861-3.861v-31.99a3.866,3.866,0,1,1,7.732,0v31.99A3.867,3.867,0,0,1,309.245,278.427Z" transform="translate(-305.385 -238.705)" fill="#4af59b"/>
      </g>
    </g>
  </g>
  <g id="Group_236" data-name="Group 236" transform="translate(32.508 39.089)">
    <g id="Group_235" data-name="Group 235">
      <g id="Group_234" data-name="Group 234">
        <path id="Path_392" data-name="Path 392" d="M320.409,268.753a16.172,16.172,0,1,1,16.172-16.172A16.19,16.19,0,0,1,320.409,268.753Zm0-24.622a8.445,8.445,0,1,0,8.44,8.45A8.458,8.458,0,0,0,320.409,244.131Z" transform="translate(-304.237 -236.41)" fill="#4af59b"/>
      </g>
    </g>
  </g>
</svg>
