<svg xmlns="http://www.w3.org/2000/svg" width="44.422" height="45.318" viewBox="0 0 44.422 45.318">
  <g id="Google__G__Logo" transform="translate(0.05 0.018)">
    <path id="Path_401" data-name="Path 401" d="M293.863,227.7a26.645,26.645,0,0,0-.391-4.6H272.1v8.725h12.239a10.488,10.488,0,0,1-4.529,6.885v5.661h7.3C291.4,240.426,293.863,234.6,293.863,227.7Z" transform="translate(-249.492 -204.542)" fill="#4af59b"/>
    <path id="Path_402" data-name="Path 402" d="M49.148,342.617a21.69,21.69,0,0,0,15.02-5.47l-7.3-5.661A13.743,13.743,0,0,1,36.435,324.3H28.9v5.836A22.661,22.661,0,0,0,49.148,342.617Z" transform="translate(-26.54 -297.317)" fill="#4af59b"/>
    <path id="Path_403" data-name="Path 403" d="M9.887,164.512a13.572,13.572,0,0,1,0-8.675V150H2.36a22.678,22.678,0,0,0,0,20.348Z" transform="translate(0 -137.528)" fill="#4af59b"/>
    <path id="Path_404" data-name="Path 404" d="M49.148,8.95a12.313,12.313,0,0,1,8.692,3.4l6.469-6.469A21.777,21.777,0,0,0,49.148-.017,22.654,22.654,0,0,0,28.9,12.472l7.526,5.836A13.553,13.553,0,0,1,49.148,8.95Z" transform="translate(-26.54 0)" fill="#4af59b"/>
  </g>
</svg>
