<svg xmlns="http://www.w3.org/2000/svg" width="21.838" height="45" viewBox="0 0 21.838 45">
  <g id="Facebook" transform="translate(-28.085 -240.355)">
    <g id="Group_240" data-name="Group 240" transform="translate(28.085 240.355)">
      <path id="Path_395" data-name="Path 395" d="M32.8,249.42v6.442h-4.72v7.877H32.8v21.616h9.7V263.739h6.5s.61-3.777.9-7.91H42.535v-5.385a2.292,2.292,0,0,1,2.1-1.885h5.284v-8.2H42.74C32.567,240.355,32.8,248.239,32.8,249.42Z" transform="translate(-28.085 -240.355)" fill="#4af59b"/>
    </g>
    <g id="Group_242" data-name="Group 242" transform="translate(28.085 240.355)">
      <g id="Group_241" data-name="Group 241" opacity="0.5">
        <path id="Path_396" data-name="Path 396" d="M32.8,249.42v6.442h-4.72v7.877H32.8v21.616h9.7V263.739h6.5s.61-3.777.9-7.91H42.535v-5.385a2.292,2.292,0,0,1,2.1-1.885h5.284v-8.2H42.74C32.567,240.355,32.8,248.239,32.8,249.42Z" transform="translate(-28.085 -240.355)" fill="#4af59b"/>
      </g>
    </g>
  </g>
</svg>
