<svg xmlns="http://www.w3.org/2000/svg" width="44.816" height="45" viewBox="0 0 44.816 45">
  <g id="Group_239" data-name="Group 239" transform="translate(-420.945 -137.539)">
    <path id="Path_394" data-name="Path 394" d="M454.562,137.539H432.144a11.21,11.21,0,0,0-11.2,11.2v22.6a11.215,11.215,0,0,0,11.2,11.2h22.418a11.215,11.215,0,0,0,11.2-11.2v-22.6A11.21,11.21,0,0,0,454.562,137.539Zm-22.418,4.145h22.418a7.062,7.062,0,0,1,7.054,7.054V152.6H449.738a10.594,10.594,0,0,0-12.312,0H425.094v-3.858A7.063,7.063,0,0,1,432.144,141.684ZM448,161.261a4.418,4.418,0,1,1-4.419-4.413A4.429,4.429,0,0,1,448,161.261Zm6.559,17.133H432.144a7.061,7.061,0,0,1-7.05-7.054v-14.6h8.859a10.639,10.639,0,1,0,19.259,0h8.4v14.6A7.059,7.059,0,0,1,454.562,178.394Z" transform="translate(0 0)" fill="#4af59b"/>
    <path id="Rectangle_450" data-name="Rectangle 450" d="M.373,0H6.552a.373.373,0,0,1,.373.373v6.18a.371.371,0,0,1-.371.371H.371A.371.371,0,0,1,0,6.553V.373A.373.373,0,0,1,.373,0Z" transform="translate(451.553 144.828)" fill="#4af59b"/>
  </g>
</svg>
