<svg xmlns="http://www.w3.org/2000/svg" width="47.098" height="45" viewBox="0 0 47.098 45">
  <path id="LinkedIn" d="M262.351,87.227v17.408h-10.1V88.395c0-4.083-1.454-6.87-5.106-6.87a5.529,5.529,0,0,0-5.183,3.693,6.936,6.936,0,0,0-.33,2.464v16.953H231.525s.145-27.511,0-30.358h10.107v4.3l-.068.1h.068v-.1a10.006,10.006,0,0,1,9.093-5.017C257.37,73.56,262.351,77.9,262.351,87.227ZM220.963,59.635c-3.451,0-5.71,2.267-5.71,5.247a5.23,5.23,0,0,0,5.577,5.247h.073c3.515,0,5.71-2.336,5.71-5.247C226.548,61.9,224.418,59.635,220.963,59.635Zm-5.11,45h10.091V74.277H215.853Z" transform="translate(-215.253 -59.635)" fill="#4af59b"/>
</svg>
